<svg width="19" height="19" viewBox="0 0 19 19" fill="none" xmlns="http://www.w3.org/2000/svg">
<path d="M18.9244 16.1695L17.8553 13.5506V8.71864H17.8488C17.6745 3.8792 13.996 0 9.5 0C5.00557 0 1.32587 3.87945 1.15119 8.71864H1.14474V13.5504L0.0755667 16.1695C-0.0451466 16.4652 -0.0200419 16.8071 0.142317 17.0782C0.304676 17.3493 0.582234 17.513 0.879853 17.513H7.58044C7.8567 18.3771 8.61184 19 9.5 19C10.3882 19 11.1433 18.377 11.4196 17.513H18.1201C18.4179 17.513 18.6953 17.3495 18.8577 17.0782C19.02 16.807 19.0451 16.4652 18.9244 16.1695ZM9.5 1.91181C13.1362 1.91181 16.0949 5.12583 16.0956 9.07615C16.0956 9.84292 16.0956 11.6673 16.0956 12.7972H2.90441V9.07029C2.90805 5.12315 5.86675 1.91181 9.5 1.91181ZM2.23257 15.6012L2.59682 14.709H16.4032L16.7674 15.6012H2.23257Z" fill="url(#paint0_linear)"/>
<defs>
<linearGradient id="paint0_linear" x1="11.7952" y1="-0.420677" x2="1.55443" y2="1.53226" gradientUnits="userSpaceOnUse">
<stop stop-color="#5461FF"/>
<stop offset="1" stop-color="#29B6F6"/>
</linearGradient>
</defs>
</svg>
