<svg width="30" height="30" viewBox="0 0 30 30" fill="none" xmlns="http://www.w3.org/2000/svg">
<g clip-path="url(#clip0)">
<path d="M21.7913 2.57336H16.1446V0H8.47648V2.57336H2.82971V6.63657H21.7913V2.57336ZM10.5081 2.0316H14.113V2.57336H10.5081V2.0316Z" fill="#4085EC"/>
<path d="M19.9871 14.5131L20.3703 8.66821H4.25073L5.5385 28.307H13.2702C12.2638 26.8804 11.6719 25.1414 11.6719 23.2666C11.6719 18.5845 15.3622 14.7481 19.9871 14.5131Z" fill="#4085EC"/>
<path d="M20.5 17C16.9159 17 14 19.6916 14 23C14 26.3083 16.9159 29 20.5 29C24.0841 29 27 26.3084 27 23C27 19.6915 24.0841 17 20.5 17Z" fill="white"/>
<path d="M20.4369 16.5333C16.7241 16.5333 13.7035 19.5539 13.7035 23.2667C13.7035 26.9794 16.7241 30.0001 20.4369 30.0001C24.1497 30.0001 27.1703 26.9795 27.1703 23.2667C27.1703 19.5538 24.1497 16.5333 20.4369 16.5333ZM24.1057 25.4989L22.6692 26.9355L20.4369 24.7032L18.2046 26.9355L16.7681 25.4989L19.0004 23.2667L16.7681 21.0344L18.2046 19.5979L20.4369 21.8301L22.6692 19.5979L24.1057 21.0344L21.8734 23.2667L24.1057 25.4989Z" fill="#242D9F"/>
</g>
<defs>
<clipPath id="clip0">
<rect width="30" height="30" fill="white"/>
</clipPath>
</defs>
</svg>
