<svg width="35" height="34" viewBox="0 0 35 34" fill="none" xmlns="http://www.w3.org/2000/svg">
<path d="M13.9664 26.3696C14.4823 25.2787 15.4047 23.2054 16.4505 20.8207C17.5462 18.4516 18.5506 16.2758 18.5506 16.2758C19.0055 16.1106 20.2666 15.9786 21.6719 16.7711C23.4286 17.7617 25.6872 20.4859 27.9458 21.4765C28.7662 21.8363 29.9534 21.6416 30.2044 21.4765C31.2082 18.9999 32.5672 16.1053 33.4668 13.7992C33.5781 13.5138 33.2158 13.0562 33.2158 13.0562C33.2158 13.0562 32.2091 13.1786 30.9572 12.5609C29.9534 12.0656 26.1891 8.3508 24.9343 7.85549C23.9305 7.45924 22.5921 7.44273 22.1738 7.60783C22.3237 7.207 23.0059 6.37964 22.788 6.27213C22.5702 6.16462 22.4457 7.05197 22.1947 7.54743C22.1947 7.54743 18.9659 15.0848 16.4505 20.8207C15.1495 23.6336 13.7198 26.7191 13.6895 26.7594C13.6664 26.7902 13.6717 26.8115 13.682 26.8248C13.6819 26.8311 13.6843 26.8352 13.6895 26.8368C13.6956 26.8386 13.6996 26.84 13.702 26.8409C13.7063 26.8425 13.7054 26.8426 13.702 26.8409C13.6975 26.8387 13.6887 26.8334 13.682 26.8248C13.6829 26.7664 13.8952 26.5202 13.9664 26.3696Z" fill="#4085EC"/>
<path d="M22.1738 7.60783C22.3237 7.207 23.0059 6.37964 22.788 6.27213C22.5702 6.16462 22.4457 7.05197 22.1947 7.54743C22.1947 7.54743 15.7231 22.6547 13.9664 26.3696C13.8876 26.5363 13.6356 26.8205 13.6895 26.8368C13.7435 26.8531 13.6337 26.8336 13.6895 26.7594C13.7454 26.6852 18.5506 16.2758 18.5506 16.2758M22.1738 7.60783C22.5921 7.44273 23.9305 7.45924 24.9343 7.85549C26.1891 8.3508 29.9534 12.0656 30.9572 12.5609C32.2091 13.1786 33.2158 13.0562 33.2158 13.0562C33.2158 13.0562 33.5781 13.5138 33.4668 13.7992C32.5672 16.1053 31.2082 18.9999 30.2044 21.4765C29.9534 21.6416 28.7662 21.8363 27.9458 21.4765C25.6872 20.4859 23.4286 17.7617 21.6719 16.7711C20.2666 15.9786 19.0055 16.1106 18.5506 16.2758M22.1738 7.60783L18.5506 16.2758" stroke="#4085EC" stroke-width="2"/>
<path d="M13.9664 26.3695C15.7231 22.6547 22.1947 7.54743 22.1947 7.54743C22.4457 7.05197 22.5701 6.16462 22.788 6.27213C23.0059 6.37964 22.3237 7.207 22.1738 7.60783L18.5506 16.2758C18.5506 16.2758 13.7454 26.6852 13.6895 26.7594C13.6337 26.8336 13.7435 26.8531 13.6895 26.8368C13.6356 26.8205 13.8876 26.5363 13.9664 26.3695Z" stroke="#242D9F" stroke-width="2"/>
<path d="M21.3372 27.0388C20.8043 25.9121 19.8516 23.7707 18.7715 21.3077C17.6397 18.8606 16.6023 16.6133 16.6023 16.6133C16.1325 16.4428 14.83 16.3064 13.3785 17.1249C11.5641 18.1481 9.23126 20.9618 6.89844 21.985C6.05102 22.3566 4.82484 22.1555 4.56563 21.985C3.52884 19.427 2.12513 16.4373 1.19602 14.0554C1.08105 13.7606 1.45525 13.288 1.45525 13.288C1.45525 13.288 2.49504 13.4144 3.78806 12.7764C4.82486 12.2648 8.71285 8.42794 10.0089 7.91636C11.0457 7.50709 12.4281 7.49004 12.8601 7.66056C12.7052 7.24656 12.0007 6.39202 12.2257 6.28097C12.4507 6.16992 12.5793 7.08643 12.8385 7.59818C12.8385 7.59818 16.1734 15.3833 18.7715 21.3077C20.1152 24.213 21.5919 27.3999 21.6232 27.4415C21.6471 27.4732 21.6416 27.4953 21.6309 27.509C21.631 27.5155 21.6286 27.5198 21.6232 27.5214C21.6169 27.5233 21.6127 27.5247 21.6103 27.5256C21.6058 27.5273 21.6068 27.5274 21.6103 27.5256C21.6149 27.5233 21.624 27.5179 21.6309 27.509C21.63 27.4487 21.4107 27.1944 21.3372 27.0388Z" fill="#4085EC"/>
<path d="M12.8601 7.66056C12.7052 7.24656 12.0007 6.39202 12.2257 6.28097C12.4507 6.16992 12.5793 7.08643 12.8385 7.59818C12.8385 7.59818 19.5227 23.2019 21.3372 27.0388C21.4186 27.2111 21.6789 27.5046 21.6232 27.5214C21.5675 27.5382 21.6808 27.5181 21.6232 27.4415C21.5655 27.3649 16.6023 16.6133 16.6023 16.6133M12.8601 7.66056C12.4281 7.49004 11.0457 7.50709 10.0089 7.91636C8.71285 8.42794 4.82486 12.2648 3.78806 12.7764C2.49504 13.4144 1.45525 13.288 1.45525 13.288C1.45525 13.288 1.08105 13.7606 1.19602 14.0554C2.12513 16.4373 3.52884 19.427 4.56563 21.985C4.82484 22.1555 6.05102 22.3566 6.89844 21.985C9.23126 20.9618 11.5641 18.1481 13.3785 17.1249C14.83 16.3064 16.1325 16.4428 16.6023 16.6133M12.8601 7.66056L16.6023 16.6133" stroke="#4085EC" stroke-width="2.06572"/>
<path d="M21.3366 27.0388C19.5222 23.2019 12.8379 7.59818 12.8379 7.59818C12.5787 7.08643 12.4501 6.16992 12.2251 6.28097C12.0001 6.39202 12.7047 7.24656 12.8595 7.66056L16.6017 16.6133C16.6017 16.6133 21.5649 27.3649 21.6226 27.4415C21.6802 27.5181 21.5669 27.5382 21.6226 27.5214C21.6783 27.5046 21.418 27.2111 21.3366 27.0388Z" stroke="#242D9F" stroke-width="2.06572"/>
</svg>
