<svg width="23" height="23" viewBox="0 0 23 23" fill="none" xmlns="http://www.w3.org/2000/svg">
<path d="M20.7224 21.9289C21.3885 21.9289 21.9286 21.3888 21.9286 20.7227V1.27963C21.9286 0.613306 21.3885 0.0733361 20.7224 0.0733361H1.27945C0.613131 0.0733361 0.0732422 0.613306 0.0732422 1.27963V20.7227C0.0732422 21.3888 0.613131 21.9289 1.27945 21.9289H20.7224Z" fill="#3B5998"/>
<path d="M15.1527 21.9289V13.4653H17.9937L18.419 10.1669H15.1527V8.06096C15.1527 7.10598 15.4179 6.45521 16.7874 6.45521L18.5341 6.45439V3.50429C18.2319 3.46417 17.1951 3.37433 15.9889 3.37433C13.4706 3.37433 11.7466 4.91146 11.7466 7.73439V10.1669H8.89844V13.4653H11.7466V21.9289H15.1527Z" fill="white"/>
</svg>
