<svg width="24" height="24" viewBox="0 0 24 24" fill="none" xmlns="http://www.w3.org/2000/svg">
<g clip-path="url(#clip0)">
<path d="M23.0792 12.0437C23.0792 11.2434 23.0143 10.4387 22.8759 9.65138H11.771V14.1851H18.1303C17.8664 15.6473 17.0185 16.9407 15.7769 17.7627V20.7044H19.5708C21.7987 18.6539 23.0792 15.6256 23.0792 12.0437Z" fill="#4285F4"/>
<path d="M11.7709 23.5466C14.9462 23.5466 17.624 22.504 19.5751 20.7044L15.7811 17.7627C14.7256 18.4808 13.3629 18.8875 11.7752 18.8875C8.70375 18.8875 6.09948 16.8153 5.16506 14.0293H1.25V17.0619C3.24863 21.0375 7.31942 23.5466 11.7709 23.5466Z" fill="#34A853"/>
<path d="M5.16068 14.0293C4.66751 12.5671 4.66751 10.9838 5.16068 9.5216V6.48905H1.24994C-0.419903 9.81577 -0.419903 13.7352 1.24994 17.0619L5.16068 14.0293Z" fill="#FBBC04"/>
<path d="M11.7709 4.65914C13.4494 4.63318 15.0717 5.26479 16.2873 6.42416L19.6486 3.06284C17.5202 1.06421 14.6953 -0.0346007 11.7709 7.56059e-06C7.31942 7.56059e-06 3.24863 2.5091 1.25 6.48905L5.16073 9.5216C6.09083 6.73131 8.69942 4.65914 11.7709 4.65914Z" fill="#EA4335"/>
</g>
<defs>
<clipPath id="clip0">
<rect width="23.0794" height="23.5466" fill="white"/>
</clipPath>
</defs>
</svg>
