<svg width="28" height="25" viewBox="0 0 28 25" fill="none" xmlns="http://www.w3.org/2000/svg">
<path d="M12.261 2.05926L14.3979 0.116211H24.3276L17.7767 7.11621L12.261 2.05926Z" fill="#242D9F"/>
<path d="M8.89154 5.3147L18.9866 14.1729H26.1373V15.0587C26.1373 15.5479 25.7606 15.9446 25.2961 15.9446H18.1454L8.33248 7.26346C8.15194 7.10386 8.04329 6.87159 8.03303 6.62353C8.02276 6.37548 8.11189 6.13434 8.27867 5.95873L8.89154 5.3147Z" fill="#242D9F"/>
<path d="M8.89209 5.31493L13.9396 0L15.2015 1.32873C15.2015 3.53031 16.8964 5.31493 18.9872 5.31493H20.0388L21.0903 9.74404L25.1027 11.5042C25.7298 11.7793 26.1381 12.4246 26.1379 13.1398V14.1731H18.9872L8.89209 5.31493Z" fill="#4085EC"/>
<path d="M17.3042 7.52962H20.5641L20.3537 6.6438H17.3042V7.52962Z" fill="white"/>
<path d="M17.7253 9.30135H20.9852L20.7749 8.41553H17.7253V9.30135Z" fill="white"/>
<path d="M13.0555 0.963379C11.7406 4.65104 16.3427 11.1046 18.9725 14.1008L8.8916 5.34251C11.1562 2.7304 11.5214 1.65482 13.0555 0.963379Z" fill="#242D9F"/>
<path fill-rule="evenodd" clip-rule="evenodd" d="M27.1458 16.515C27.1458 15.9716 26.7052 15.531 26.1618 15.531H13.9895C13.446 15.531 13.0055 15.9716 13.0055 16.515V18.9891C13.0055 19.5325 12.5649 19.9731 12.0215 19.9731H2.87929C2.33583 19.9731 1.89526 20.4137 1.89526 20.9571V23.8755C1.89526 24.419 2.33583 24.8596 2.87929 24.8596H13.0054C13.0055 24.8596 13.0055 24.8596 13.0055 24.8596V24.8596C13.0055 24.8596 13.0055 24.8597 13.0055 24.8597H26.1618C26.7052 24.8597 27.1458 24.4191 27.1458 23.8756V16.515Z" fill="#4085EC"/>
<path d="M27.1744 21.959L27.1744 23.8756C27.1744 24.4191 26.7373 24.8596 26.1938 24.8596H2.54174C12.1653 24.8596 23.2448 23.506 27.1744 21.959Z" fill="#242D9F"/>
</svg>
