<svg width="28" height="27" viewBox="0 0 28 27" fill="none" xmlns="http://www.w3.org/2000/svg">
<g clip-path="url(#clip0)">
<path d="M14.2417 13.2048C17.2603 13.2048 19.7076 10.2488 19.7076 6.60242C19.7076 2.95596 18.9041 0 14.2417 0C9.57928 0 8.77563 2.95596 8.77563 6.60242C8.77563 10.2488 11.2229 13.2048 14.2417 13.2048Z" fill="#4085EC"/>
<path d="M3.91757 23.2859C3.91665 23.0636 3.91572 23.2232 3.91757 23.2859V23.2859Z" fill="#4085EC"/>
<path d="M24.5654 23.4595C24.5684 23.3987 24.5664 23.0372 24.5654 23.4595V23.4595Z" fill="#4085EC"/>
<path d="M24.5536 23.0193C24.4524 16.6672 23.6182 14.8572 17.2346 13.7114C17.2346 13.7114 16.336 14.8501 14.2415 14.8501C12.1471 14.8501 11.2484 13.7114 11.2484 13.7114C4.93444 14.8447 4.04951 16.6278 3.93315 22.8129C3.92361 23.3179 3.91919 23.3445 3.91748 23.2859C3.91787 23.3957 3.91833 23.5989 3.91833 23.9532C3.91833 23.9532 5.43811 27.0001 14.2415 27.0001C23.0448 27.0001 24.5648 23.9532 24.5648 23.9532C24.5648 23.7256 24.5649 23.5673 24.5652 23.4596C24.5634 23.4958 24.56 23.4256 24.5536 23.0193Z" fill="#4085EC"/>
<path d="M8.75614 7.30468C8.90491 11.2252 11.6385 12.9451 13.6841 13.2225C12.8163 12.9451 10.6157 10.9108 10.6157 7.30468C10.6157 4.90057 11.3596 2.03413 12.6613 0.184814C10.2438 0.369746 8.57018 2.40399 8.75614 7.30468Z" fill="#242D9F"/>
<path d="M5.22292 16.4588C6.34912 14.7788 9.65495 13.8697 11.2666 13.6848C11.9174 14.1471 12.5683 14.517 12.9402 14.7019C11.4835 15.4108 8.16107 17.0506 6.89655 17.9382C5.63203 18.8259 4.26213 22.2225 3.82822 23.856C3.82822 22.0992 3.54929 18.9554 5.22292 16.4588Z" fill="#242D9F"/>
</g>
<defs>
<clipPath id="clip0">
<rect x="0.666748" width="27.15" height="27" fill="white"/>
</clipPath>
</defs>
</svg>
