<svg width="29" height="24" viewBox="0 0 29 24" fill="none" xmlns="http://www.w3.org/2000/svg">
<path d="M20.7692 2H3.23077C2.37466 2.00242 1.55432 2.34122 0.948961 2.94237C0.343601 3.54353 0.00243559 4.35817 0 5.20833V16.2083C0.00243559 17.0585 0.343601 17.8731 0.948961 18.4743C1.55432 19.0754 2.37466 19.4142 3.23077 19.4167H5.53846V24L10.9454 19.5232C11.0284 19.4544 11.1332 19.4166 11.2413 19.4167H20.7692C21.6253 19.4142 22.4457 19.0754 23.051 18.4743C23.6564 17.8731 23.9976 17.0585 24 16.2083V5.20833C23.9976 4.35817 23.6564 3.54353 23.051 2.94237C22.4457 2.34122 21.6253 2.00242 20.7692 2Z" fill="#5166FE"/>
<path d="M20.7692 2H3.23077C2.37466 2.00242 1.55432 2.34122 0.948961 2.94237C0.343601 3.54353 0.00243559 4.35817 0 5.20833V16.2083C0.00243559 17.0585 0.343601 17.8731 0.948961 18.4743C1.55432 19.0754 2.37466 19.4142 3.23077 19.4167H5.53846V24L10.9454 19.5232C11.0284 19.4544 11.1332 19.4166 11.2413 19.4167H20.7692C21.6253 19.4142 22.4457 19.0754 23.051 18.4743C23.6564 17.8731 23.9976 17.0585 24 16.2083V5.20833C23.9976 4.35817 23.6564 3.54353 23.051 2.94237C22.4457 2.34122 21.6253 2.00242 20.7692 2Z" fill="#242D9F"/>
<path d="M25.7692 0H8.23077C7.37467 0.00241867 6.55432 0.341215 5.94896 0.942371C5.3436 1.54353 5.00244 2.35817 5 3.20833V14.2083C5.00244 15.0585 5.3436 15.8731 5.94896 16.4743C6.55432 17.0755 7.37467 17.4142 8.23077 17.4167H10.5385V22L15.9454 17.5232C16.0284 17.4544 16.1332 17.4166 16.2413 17.4167H25.7692C26.6253 17.4142 27.4457 17.0755 28.051 16.4743C28.6564 15.8731 28.9976 15.0585 29 14.2083V3.20833C28.9976 2.35817 28.6564 1.54353 28.051 0.942371C27.4457 0.341215 26.6253 0.00241867 25.7692 0Z" fill="#4085EC"/>
<path d="M25.7692 0H8.23077C7.37467 0.00241867 6.55432 0.341215 5.94896 0.942371C5.3436 1.54353 5.00244 2.35817 5 3.20833V14.2083C5.00244 15.0585 5.3436 15.8731 5.94896 16.4743C6.55432 17.0755 7.37467 17.4142 8.23077 17.4167H10.5385V22L15.9454 17.5232C16.0284 17.4544 16.1332 17.4166 16.2413 17.4167H25.7692C26.6253 17.4142 27.4457 17.0755 28.051 16.4743C28.6564 15.8731 28.9976 15.0585 29 14.2083V3.20833C28.9976 2.35817 28.6564 1.54353 28.051 0.942371C27.4457 0.341215 26.6253 0.00241867 25.7692 0Z" fill="#4085EC"/>
</svg>
