<svg width="28" height="28" viewBox="0 0 28 28" fill="none" xmlns="http://www.w3.org/2000/svg">
<path d="M14 4.375C12.0964 4.375 10.2355 4.9395 8.65264 5.9971C7.06982 7.05471 5.83616 8.55793 5.10766 10.3167C4.37917 12.0754 4.18856 14.0107 4.55995 15.8777C4.93133 17.7448 5.84802 19.4598 7.1941 20.8059C8.54018 22.152 10.2552 23.0687 12.1223 23.4401C13.9893 23.8114 15.9246 23.6208 17.6833 22.8923C19.4421 22.1638 20.9453 20.9302 22.0029 19.3474C23.0605 17.7645 23.625 15.9036 23.625 14C23.625 11.4473 22.6109 8.99913 20.8059 7.1941C19.0009 5.38906 16.5527 4.375 14 4.375Z" stroke="url(#paint0_linear)" stroke-width="2.0625" stroke-miterlimit="10"/>
<path d="M10.9375 11.0627C10.9375 11.0627 10.9834 10.1056 12.0077 9.28149C12.6153 8.79204 13.3438 8.6504 14 8.64055C14.5977 8.6329 15.1315 8.73188 15.4509 8.88391C15.9977 9.14422 17.0625 9.77969 17.0625 11.131C17.0625 12.5529 16.1328 13.1988 15.0735 13.9091C14.0142 14.6195 13.7266 15.3906 13.7266 16.1874" stroke="url(#paint1_linear)" stroke-width="1.80469" stroke-miterlimit="10" stroke-linecap="round"/>
<path d="M14.7334 19.0312C14.7334 19.6175 14.2581 20.0928 13.6719 20.0928C13.0856 20.0928 12.6104 19.6175 12.6104 19.0312C12.6104 18.445 13.0856 17.9697 13.6719 17.9697C14.2581 17.9697 14.7334 18.445 14.7334 19.0312Z" fill="url(#paint2_linear)" stroke="url(#paint3_linear)" stroke-width="0.0644531"/>
<defs>
<linearGradient id="paint0_linear" x1="16.3254" y1="3.94879" x2="5.94988" y2="5.92743" gradientUnits="userSpaceOnUse">
<stop stop-color="#5461FF"/>
<stop offset="1" stop-color="#29B6F6"/>
</linearGradient>
<linearGradient id="paint1_linear" x1="14.7399" y1="8.47303" x2="11.3986" y2="8.99015" gradientUnits="userSpaceOnUse">
<stop stop-color="#5461FF"/>
<stop offset="1" stop-color="#29B6F6"/>
</linearGradient>
<linearGradient id="paint2_linear" x1="13.9361" y1="17.8891" x2="12.7571" y2="18.1139" gradientUnits="userSpaceOnUse">
<stop stop-color="#5461FF"/>
<stop offset="1" stop-color="#29B6F6"/>
</linearGradient>
<linearGradient id="paint3_linear" x1="13.9361" y1="17.8891" x2="12.7571" y2="18.1139" gradientUnits="userSpaceOnUse">
<stop stop-color="#5461FF"/>
<stop offset="1" stop-color="#29B6F6"/>
</linearGradient>
</defs>
</svg>
