<svg width="30" height="30" viewBox="0 0 30 30" fill="none" xmlns="http://www.w3.org/2000/svg">
<g clip-path="url(#clip0)">
<path d="M15 30C23.2843 30 30 23.2843 30 15C30 6.71573 23.2843 0 15 0C6.71573 0 0 6.71573 0 15C0 23.2843 6.71573 30 15 30Z" fill="#3F7FE5"/>
<path d="M11.1672 21.7666L18.8802 29.4796C25.2682 27.7761 30 21.9559 30 15.0001C30 14.8581 30 14.7162 30 14.5742L23.9433 8.9906L11.1672 21.7666Z" fill="#242D9F"/>
<path d="M15.3785 18.3597C16.041 19.0221 16.041 20.1578 15.3785 20.8202L14.0063 22.1925C13.3438 22.8549 12.2082 22.8549 11.5457 22.1925L5.53627 16.1357C4.87381 15.4732 4.87381 14.3376 5.53627 13.6751L6.90851 12.3029C7.57097 11.6404 8.70662 11.6404 9.36908 12.3029L15.3785 18.3597Z" fill="white"/>
<path d="M20.6309 7.90224C21.2934 7.23978 22.429 7.23978 23.0915 7.90224L24.4637 9.27448C25.1262 9.93694 25.1262 11.0726 24.4637 11.735L14.0537 22.0978C13.3912 22.7603 12.2555 22.7603 11.5931 22.0978L10.2208 20.7256C9.55838 20.0631 9.55838 18.9275 10.2208 18.265L20.6309 7.90224Z" fill="white"/>
</g>
<defs>
<clipPath id="clip0">
<rect width="30" height="30" fill="white"/>
</clipPath>
</defs>
</svg>
